<svg xmlns="http://www.w3.org/2000/svg" width="867" height="1160" viewBox="2.00 -2.00 43.35 58.00" role="img">
<style>
.step{fill:#fff;stroke:#111;stroke-width:.14}.step-inner{fill:none;stroke:#111;stroke-width:.08}
.action{fill:#fff;stroke:#111;stroke-width:.14}.action-inner{fill:none;stroke:#111;stroke-width:.08}.gate{stroke:#111;stroke-width:.16}
.edge{fill:none;stroke:#111;stroke-width:.05;stroke-linecap:round;stroke-linejoin:round}.edge-arrow{marker-end:url(#arrow)}
.flyover-mask{stroke:#fff;stroke-width:.12;stroke-linecap:round}
.flyover{fill:none;stroke:#111;stroke-width:.05;stroke-linecap:round}
.junction{fill:#111;stroke:#111;stroke-width:0}.branch-junction{fill:#fff;stroke:#111;stroke-width:.08}
.assoc{stroke:#111;stroke-width:.05}.label{font:bold .7px 'Times New Roman', 'BiauKai', 'DFKai-SB', serif;text-anchor:middle;dominant-baseline:middle}
.action-label{font:.55px 'Times New Roman', 'BiauKai', 'DFKai-SB', serif;text-anchor:middle;dominant-baseline:middle}.gate-label{font:italic .55px 'Times New Roman', 'BiauKai', 'DFKai-SB', serif;text-anchor:start;dominant-baseline:middle}.gate-label-left{font:italic .55px 'Times New Roman', 'BiauKai', 'DFKai-SB', serif;text-anchor:end;dominant-baseline:middle}
</style>
<defs><marker id="arrow" markerWidth="0.4" markerHeight="0.4" refX="0.36" refY="0.2" orient="auto" markerUnits="userSpaceOnUse"><path d="M 0 0 L 0.4 0.2 L 0 0.4 z" fill="#111"/></marker></defs>
<rect x="2.00" y="-2.00" width="43.35" height="58.00" fill="white"/>
<path class="edge edge-arrow" data-edge-id="edge:S0O1S1I1" data-segment-ids="S0O1S1I1:1S" d="M 21.45 7.00 L 21.45 11.00"/>
<path class="edge edge-arrow" data-edge-id="edge:S1O1G1I1" data-segment-ids="S1O1G1I1:1S" d="M 21.45 14.00 L 21.45 16.00"/>
<path class="edge edge-arrow" data-edge-id="edge:G1O1S2I1" data-segment-ids="G1O1S2I1:1S" d="M 21.45 16.00 L 21.45 20.00"/>
<path class="edge edge-arrow" data-edge-id="edge:G1O2S6I1" data-segment-ids="G1O2S6I1:1S" d="M 32.90 16.00 L 32.90 20.00"/>
<path class="edge edge-arrow" data-edge-id="edge:S2O1S3I1" data-segment-ids="S2O1S3I1:1S" d="M 21.45 23.00 L 21.45 27.00"/>
<path class="edge edge-arrow" data-edge-id="edge:S3O1S4I1" data-segment-ids="S3O1S4I1:1S" d="M 21.45 30.00 L 21.45 34.00"/>
<path class="edge edge-arrow" data-edge-id="edge:S4O1G2I1" data-segment-ids="S4O1G2I1:1S" d="M 21.45 37.00 L 21.45 39.00"/>
<path class="edge edge-arrow" data-edge-id="edge:G2O1S5I1" data-segment-ids="G2O1S5I1:1S" d="M 10.00 39.00 L 10.00 43.00"/>
<path class="edge edge-arrow" data-edge-id="edge:G2O2S7I1" data-segment-ids="G2O2S7I1:1S" d="M 21.45 39.00 L 21.45 43.00"/>
<path class="edge edge-arrow" data-edge-id="edge:S5O1G3I1" data-segment-ids="S5O1G3I1:1S" d="M 10.00 46.00 L 10.00 50.00"/>
<path class="edge edge-arrow" data-edge-id="edge:G3O1S0I1" data-segment-ids="G3O1S0I1:1S G3O1S0I1:2W G3O1S0I1:3N G3O1S0I1:4E G3O1S0I1:5S" d="M 21.45 50.00 L 21.45 51.50 Q 21.45 52.00 20.95 52.00 L 6.50 52.00 Q 6.00 52.00 6.00 51.50 L 6.00 2.50 Q 6.00 2.00 6.50 2.00 L 20.95 2.00 Q 21.45 2.00 21.45 2.50 L 21.45 4.00"/>
<path class="edge edge-arrow" data-edge-id="edge:S6O1G3I2" data-segment-ids="S6O1G3I2:1S" d="M 32.90 23.00 L 32.90 50.00"/>
<path class="edge edge-arrow" data-edge-id="edge:S7O1G3I3" data-segment-ids="S7O1G3I3:1S" d="M 21.45 46.00 L 21.45 50.00"/>
<rect class="step" x="19.45" y="4.00" width="4.00" height="3.00" rx="0.35" ry="0.35"/>
<rect class="step-inner" x="19.70" y="4.25" width="3.50" height="2.50" rx="0.22" ry="0.22"/>
<text class="label" x="21.45" y="5.50">0</text>
<rect class="step" x="19.45" y="11.00" width="4.00" height="3.00" rx="0.35" ry="0.35"/>
<text class="label" x="21.45" y="12.50">1</text>
<rect class="step" x="19.45" y="20.00" width="4.00" height="3.00" rx="0.35" ry="0.35"/>
<text class="label" x="21.45" y="21.50">2</text>
<rect class="step" x="19.45" y="27.00" width="4.00" height="3.00" rx="0.35" ry="0.35"/>
<text class="label" x="21.45" y="28.50">3</text>
<rect class="step" x="19.45" y="34.00" width="4.00" height="3.00" rx="0.35" ry="0.35"/>
<text class="label" x="21.45" y="35.50">4</text>
<rect class="step" x="8.00" y="43.00" width="4.00" height="3.00" rx="0.35" ry="0.35"/>
<text class="label" x="10.00" y="44.50">5</text>
<rect class="step" x="30.90" y="20.00" width="4.00" height="3.00" rx="0.35" ry="0.35"/>
<text class="label" x="32.90" y="21.50">6</text>
<rect class="step" x="19.45" y="43.00" width="4.00" height="3.00" rx="0.35" ry="0.35"/>
<text class="label" x="21.45" y="44.50">7</text>
<line class="assoc" x1="23.45" y1="5.50" x2="24.45" y2="5.50"/>
<rect class="action" x="24.45" y="4.07" width="5.45" height="2.86"/>
<text class="action-label" x="27.18" y="4.68"><tspan x="27.18" dy="0">監聽對話輸入</tspan><tspan x="27.18" dy="0.82">（語音辨識或</tspan><tspan x="27.18" dy="0.82">打字或快捷鈕）</tspan></text>
<line class="assoc" x1="23.45" y1="12.50" x2="24.45" y2="12.50"/>
<rect class="action" x="24.45" y="11.07" width="5.45" height="2.86"/>
<text class="action-label" x="27.18" y="11.68"><tspan x="27.18" dy="0">後端依封閉</tspan><tspan x="27.18" dy="0.82">集判定意圖</tspan><tspan x="27.18" dy="0.82">並產 payload</tspan></text>
<line class="assoc" x1="23.45" y1="21.50" x2="24.45" y2="21.50"/>
<rect class="action" x="24.45" y="20.07" width="5.45" height="2.86"/>
<text class="action-label" x="27.18" y="20.68"><tspan x="27.18" dy="0">暫停 A1 語音</tspan><tspan x="27.18" dy="0.82">辨識並插入</tspan><tspan x="27.18" dy="0.82">引導語泡泡</tspan></text>
<line class="assoc" x1="23.45" y1="28.50" x2="24.45" y2="28.50"/>
<rect class="action" x="24.45" y="27.07" width="5.45" height="2.86"/>
<text class="action-label" x="27.18" y="27.68"><tspan x="27.18" dy="0">全螢幕掛載</tspan><tspan x="27.18" dy="0.82">A5 聽寫或 A2</tspan><tspan x="27.18" dy="0.82">成語測驗元件</tspan></text>
<line class="assoc" x1="23.45" y1="35.50" x2="24.45" y2="35.50"/>
<rect class="action" x="24.45" y="34.07" width="5.45" height="2.86"/>
<text class="action-label" x="27.18" y="35.09"><tspan x="27.18" dy="0">蒐集測驗結</tspan><tspan x="27.18" dy="0.82">果或中止狀態</tspan></text>
<line class="assoc" x1="12.00" y1="44.50" x2="13.00" y2="44.50"/>
<rect class="action" x="13.00" y="43.07" width="5.45" height="2.86"/>
<text class="action-label" x="15.72" y="43.68"><tspan x="15.72" dy="0">插入成績總</tspan><tspan x="15.72" dy="0.82">結卡並恢復</tspan><tspan x="15.72" dy="0.82">A1 語音辨識</tspan></text>
<line class="assoc" x1="34.90" y1="21.50" x2="35.90" y2="21.50"/>
<rect class="action" x="35.90" y="20.07" width="5.45" height="2.86"/>
<text class="action-label" x="38.62" y="20.68"><tspan x="38.62" dy="0">渲染既有意</tspan><tspan x="38.62" dy="0.82">圖 inline 富內</tspan><tspan x="38.62" dy="0.82">容到對話串流</tspan></text>
<line class="assoc" x1="23.45" y1="44.50" x2="24.45" y2="44.50"/>
<rect class="action" x="24.45" y="43.07" width="5.45" height="2.86"/>
<text class="action-label" x="27.18" y="44.09"><tspan x="27.18" dy="0">恢復 A1 語音辨</tspan><tspan x="27.18" dy="0.82">識不插入總結卡</tspan></text>
<line class="gate" x1="19.45" y1="16.00" x2="34.90" y2="16.00"/>
<line class="gate" x1="8.00" y1="39.00" x2="23.45" y2="39.00"/>
<line class="gate" x1="8.00" y1="50.00" x2="34.90" y2="50.00"/>
<line class="gate" x1="20.45" y1="9.00" x2="22.45" y2="9.00" data-label-kind="condition-stub" data-edge-id="edge:S0O1S1I1" data-arrow-id="condition_stub:T1" data-transition-id="T1" data-condition-stub-id="condition_stub:T1"/>
<text class="gate-label" x="22.85" y="9.00" data-label-kind="condition-stub" data-edge-id="edge:S0O1S1I1" data-arrow-id="condition_stub:T1" data-transition-id="T1" data-condition-stub-id="condition_stub:T1"><tspan x="22.85" dy="0">收到使用者 turn</tspan></text>
<line class="gate" x1="20.45" y1="18.00" x2="22.45" y2="18.00" data-label-kind="condition-stub" data-edge-id="edge:G1O1S2I1" data-arrow-id="condition_stub:T2" data-transition-id="T2" data-condition-stub-id="condition_stub:T2"/>
<text class="gate-label-left" x="20.05" y="18.00" data-label-kind="condition-stub" data-edge-id="edge:G1O1S2I1" data-arrow-id="condition_stub:T2" data-transition-id="T2" data-condition-stub-id="condition_stub:T2"><tspan x="20.05" dy="0">意圖為 start_dictation 或 start_idiom</tspan></text>
<line class="gate" x1="31.90" y1="18.00" x2="33.90" y2="18.00" data-label-kind="condition-stub" data-edge-id="edge:G1O2S6I1" data-arrow-id="condition_stub:T3" data-transition-id="T3" data-condition-stub-id="condition_stub:T3"/>
<text class="gate-label" x="34.30" y="18.00" data-label-kind="condition-stub" data-edge-id="edge:G1O2S6I1" data-arrow-id="condition_stub:T3" data-transition-id="T3" data-condition-stub-id="condition_stub:T3"><tspan x="34.30" dy="0">意圖為既有對話意圖</tspan></text>
<line class="gate" x1="20.45" y1="25.00" x2="22.45" y2="25.00" data-label-kind="condition-stub" data-edge-id="edge:S2O1S3I1" data-arrow-id="condition_stub:T4" data-transition-id="T4" data-condition-stub-id="condition_stub:T4"/>
<text class="gate-label" x="22.85" y="25.00" data-label-kind="condition-stub" data-edge-id="edge:S2O1S3I1" data-arrow-id="condition_stub:T4" data-transition-id="T4" data-condition-stub-id="condition_stub:T4"><tspan x="22.85" dy="0">麥克風已暫停</tspan></text>
<line class="gate" x1="20.45" y1="32.00" x2="22.45" y2="32.00" data-label-kind="condition-stub" data-edge-id="edge:S3O1S4I1" data-arrow-id="condition_stub:T5" data-transition-id="T5" data-condition-stub-id="condition_stub:T5"/>
<text class="gate-label" x="22.85" y="32.00" data-label-kind="condition-stub" data-edge-id="edge:S3O1S4I1" data-arrow-id="condition_stub:T5" data-transition-id="T5" data-condition-stub-id="condition_stub:T5"><tspan x="22.85" dy="0">使用者完成或關閉測驗</tspan></text>
<line class="gate" x1="9.00" y1="41.00" x2="11.00" y2="41.00" data-label-kind="condition-stub" data-edge-id="edge:G2O1S5I1" data-arrow-id="condition_stub:T6" data-transition-id="T6" data-condition-stub-id="condition_stub:T6"/>
<text class="gate-label-left" x="8.60" y="40.32" data-label-kind="condition-stub" data-edge-id="edge:G2O1S5I1" data-arrow-id="condition_stub:T6" data-transition-id="T6" data-condition-stub-id="condition_stub:T6"><tspan x="8.60" dy="0">測驗</tspan><tspan x="8.60" dy="0.68">完成</tspan><tspan x="8.60" dy="0.68">有成績</tspan></text>
<line class="gate" x1="20.45" y1="41.00" x2="22.45" y2="41.00" data-label-kind="condition-stub" data-edge-id="edge:G2O2S7I1" data-arrow-id="condition_stub:T7" data-transition-id="T7" data-condition-stub-id="condition_stub:T7"/>
<text class="gate-label" x="22.85" y="41.00" data-label-kind="condition-stub" data-edge-id="edge:G2O2S7I1" data-arrow-id="condition_stub:T7" data-transition-id="T7" data-condition-stub-id="condition_stub:T7"><tspan x="22.85" dy="0">測驗中途關閉</tspan></text>
<line class="gate" x1="9.00" y1="48.00" x2="11.00" y2="48.00" data-label-kind="condition-stub" data-edge-id="edge:S5O1G3I1" data-arrow-id="condition_stub:T8" data-transition-id="T8" data-condition-stub-id="condition_stub:T8"/>
<text class="gate-label-left" x="5.80" y="48.00" data-label-kind="condition-stub" data-edge-id="edge:S5O1G3I1" data-arrow-id="condition_stub:T8" data-transition-id="T8" data-condition-stub-id="condition_stub:T8"><tspan x="5.80" dy="0">回到對話</tspan></text>
<line class="gate" x1="31.90" y1="48.00" x2="33.90" y2="48.00" data-label-kind="condition-stub" data-edge-id="edge:S6O1G3I2" data-arrow-id="condition_stub:T9" data-transition-id="T9" data-condition-stub-id="condition_stub:T9"/>
<text class="gate-label" x="34.30" y="48.00" data-label-kind="condition-stub" data-edge-id="edge:S6O1G3I2" data-arrow-id="condition_stub:T9" data-transition-id="T9" data-condition-stub-id="condition_stub:T9"><tspan x="34.30" dy="0">渲染完成回到聆聽</tspan></text>
<line class="gate" x1="20.45" y1="48.00" x2="22.45" y2="48.00" data-label-kind="condition-stub" data-edge-id="edge:S7O1G3I3" data-arrow-id="condition_stub:T10" data-transition-id="T10" data-condition-stub-id="condition_stub:T10"/>
<text class="gate-label" x="22.85" y="48.00" data-label-kind="condition-stub" data-edge-id="edge:S7O1G3I3" data-arrow-id="condition_stub:T10" data-transition-id="T10" data-condition-stub-id="condition_stub:T10"><tspan x="22.85" dy="0">回到對話</tspan></text>
</svg>